<svg xmlns="http://www.w3.org/2000/svg" xmlns:xlink="http://www.w3.org/1999/xlink" version="1.0" id="katman_1" x="0px" y="0px" viewBox="0 0 600 450" style="enable-background:new 0 0 600 450;" xml:space="preserve">
<style type="text/css">
	.st0{clip-path:url(#SVGID_00000029006678691146784930000010787589057086600366_);}
</style>
<g>
	<g>
		<defs fill="#ffffff">
			<rect id="SVGID_1_" x="72" y="184" width="456" height="82.1" fill="#ffffff"/>
		</defs>
		<clipPath id="SVGID_00000182494823151134592430000012786793696072660657_" fill="#ffffff">
			<use xlink:href="#SVGID_1_" style="overflow:visible;" fill="#ffffff"/>
		</clipPath>
		<path style="clip-path:url(#SVGID_00000182494823151134592430000012786793696072660657_);" d="M182.8,207.6h10.4l10.7,27.4    l10.7-27.4h10.4l-17.6,42h-7L182.8,207.6z M274.3,250.3c-6.2,0-10.9-1.9-14.3-5.8c-3.3-3.9-4.9-9.2-4.9-15.8    c0-6.6,1.6-11.9,4.9-15.8c3.3-3.9,8.1-5.9,14.3-5.9c2.1,0,4.1,0.5,5.9,1.3c1.9,0.9,3.3,1.9,4.3,3.2v-20.8h10.4v59h-10.4v-4.3    c-0.7,1.2-1.9,2.4-3.8,3.4C278.8,249.8,276.7,250.3,274.3,250.3L274.3,250.3z M275.7,241.5c2.8,0,5.1-1.1,6.9-3.3    c1.8-2.3,2.8-5.4,2.8-9.5c0-4.1-0.9-7.2-2.8-9.4c-1.8-2.3-4.1-3.4-6.9-3.4c-2.8,0-5.2,1.1-7,3.4c-1.8,2.2-2.8,5.4-2.8,9.4    c0,4,0.9,7.1,2.8,9.4C270.5,240.3,272.9,241.5,275.7,241.5L275.7,241.5z M322.9,250.3c-4.6,0-8.4-1.1-11.4-3.2    c-2.9-2.1-5.2-4.9-6.7-8.2c-1.4-3.3-2.1-6.8-2.1-10.3c0-3.6,0.7-7,2.1-10.3c1.4-3.3,3.7-6.1,6.7-8.2c3.1-2.2,6.9-3.3,11.4-3.3    c4.4,0,8.1,1.1,11,3.2c2.9,1.9,5.1,4.7,6.5,7.8c1.4,3.1,2.1,6.4,2.1,9.7v4.3h-29.6c0.1,1.6,0.6,3.2,1.4,4.6    c0.9,1.4,2.1,2.6,3.7,3.6c1.6,0.9,3.4,1.3,5.5,1.3c4.2,0,7.7-2,10.3-6l8.3,4.3C338,246.8,331.7,250.3,322.9,250.3L322.9,250.3z     M332.8,224.1c-0.6-2.5-1.7-4.6-3.3-6.3c-1.6-1.6-3.8-2.4-6.6-2.4c-2.7,0-4.9,0.9-6.7,2.6c-1.7,1.6-2.9,3.8-3.3,6.1H332.8z     M370.2,250.3c-4.2,0-7.8-1-11-2.9c-3.1-1.9-5.6-4.6-7.3-7.8c-1.7-3.3-2.5-7-2.5-10.9c0-3.9,0.8-7.6,2.5-10.8    c1.6-3.3,4.2-6,7.3-7.9c3.1-1.9,6.8-2.9,10.9-2.9c4.2,0,7.8,1,10.9,2.9c3.1,1.9,5.6,4.7,7.2,7.9c1.7,3.3,2.6,6.9,2.6,10.8    c0,3.8-0.9,7.6-2.6,10.9c-1.6,3.2-4.1,6-7.2,7.8C378,249.3,374.4,250.3,370.2,250.3L370.2,250.3z M370.2,241.5    c3.4,0,6-1.2,7.9-3.8c1.9-2.5,2.8-5.5,2.8-9.1c0-3.6-0.9-6.6-2.8-9.1c-1.8-2.5-4.5-3.8-7.9-3.8c-3.4,0-6,1.2-7.9,3.8    c-1.8,2.5-2.7,5.5-2.7,9.1c0,3.6,0.9,6.6,2.7,9.1C364.2,240.2,366.8,241.5,370.2,241.5L370.2,241.5z M411.5,250.3    c-3.7,0-6.8-1.1-9.2-3.3c-2.4-2.2-3.6-5.4-3.6-9.4c0-2.7,0.7-5.1,2.2-7.2c1.5-2.1,3.6-3.7,6.3-4.8c2.7-1.2,5.9-1.7,9.4-1.7h7V222    c0-2.2-0.7-3.9-2.1-5c-1.4-1.1-3.1-1.7-5.3-1.7c-1.6,0-3.1,0.5-4.4,1.4c-1.3,0.9-2.2,2.3-2.8,4.4l-8.8-2.5c0.9-3.4,3-6.4,5.8-8.4    c2.9-2.2,6.3-3.3,10.2-3.3c5.4,0,9.7,1.4,12.7,4.1c3,2.7,4.5,7.2,4.5,13.5v25.1h-8l-1.1-5.3C421.1,248.3,416.8,250.3,411.5,250.3    L411.5,250.3z M412.9,241.9c1.8,0,3.5-0.4,5.1-1.2c1.6-0.7,3-1.9,4-3.3c1-1.4,1.6-3.1,1.6-5v-0.9H416c-2.5,0-4.5,0.5-5.8,1.5    c-1.3,0.9-2,2.4-2,4.4c0,1.2,0.4,2.2,1.3,3.1C410.2,241.4,411.4,241.9,412.9,241.9L412.9,241.9z M460.8,250.3    c-9.5,0-15.7-4.2-18.5-12.6l9.4-3.2c0.8,2.4,1.9,4.2,3.4,5.3c1.5,1.1,3.5,1.7,6.1,1.7c2,0,3.6-0.4,4.9-1.1c1.3-0.8,2-1.7,2-2.9    c0-1.1-0.6-2-1.9-2.7c-1.3-0.7-3.6-1.4-6.9-2.2c-9.5-2.1-14.2-6.6-14.2-13.5c0-2.4,0.7-4.5,2.1-6.3c1.4-1.9,3.3-3.4,5.5-4.3    c2.3-1,4.8-1.5,7.4-1.5c7.5,0,13,3.1,16.5,9.4l-7.4,5.2c-2-3.8-5-5.8-8.9-5.8c-1.4,0-2.7,0.3-3.8,1c-1.1,0.7-1.6,1.5-1.6,2.6    c0,1.1,0.5,2,1.6,2.7c1,0.7,3.1,1.4,6,2c5.2,1,9.1,2.5,11.6,4.4c2.6,1.9,3.8,4.7,3.8,8.3c0,4.2-1.6,7.5-4.8,9.9    C469.7,249.1,465.7,250.3,460.8,250.3L460.8,250.3z M488.8,190.6h10.3v32.6l13.8-15.6h12.5l-18,19.3l19.9,22.8h-12.5l-15.7-19.1    v19.1h-10.3V190.6z M239.2,202.2c-1.9,0-3.5-0.6-4.8-1.9c-1.3-1.3-1.9-2.9-1.9-4.8c0-1.9,0.6-3.5,1.9-4.8c1.3-1.3,2.9-1.9,4.8-1.9    c1.9,0,3.5,0.6,4.8,1.9c1.3,1.3,1.9,2.9,1.9,4.8c0,1.9-0.6,3.5-1.9,4.8C242.7,201.6,241.1,202.2,239.2,202.2L239.2,202.2z     M234,207.6h10.4v42H234V207.6z M133.5,208.4c-6.8,0-12.2-5.4-12.2-12.2c0-6.8,5.5-12.2,12.2-12.2c6.7,0,12.2,5.5,12.2,12.2    C145.7,202.9,140.2,208.4,133.5,208.4L133.5,208.4z M96.5,208.4c-6.8,0-12.2-5.4-12.2-12.2c0-6.8,5.5-12.2,12.2-12.2    c6.7,0,12.2,5.5,12.2,12.2C108.8,202.9,103.3,208.4,96.5,208.4L96.5,208.4z M76.7,223.6c-2.9,0-5.2,2.5-4.6,5.3    c4.4,20.1,22.2,34.4,42.8,34.4c21,0,38.5-14.7,42.8-34.4c0.6-2.8-1.7-5.3-4.6-5.3H76.7z M76.7,223.6" fill="#ffffff"/>
	</g>
</g>
</svg>