<svg xmlns="http://www.w3.org/2000/svg" fill="none" height="24" viewBox="0 0 134 24" width="134">
<g clip-path="url(#clip0)">
<path d="M32.4 6.92H35.452L38.578 14.94L41.704 6.92H44.757L39.603 19.206H37.552L32.399 6.92H32.4ZM59.148 19.4C57.34 19.4 55.948 18.832 54.972 17.694C54.01 16.54 53.53 14.997 53.53 13.062C53.53 11.129 54.01 9.592 54.971 8.455C55.948 7.302 57.341 6.725 59.147 6.725C59.747 6.724 60.339 6.857 60.881 7.115C61.435 7.375 61.851 7.683 62.127 8.041V1.947H65.156V19.206H62.127V17.938C61.932 18.295 61.557 18.628 61.004 18.938C60.466 19.246 59.848 19.4 59.148 19.4V19.4ZM59.563 16.816C60.393 16.816 61.069 16.491 61.59 15.842C62.127 15.175 62.396 14.25 62.396 13.062C62.396 11.876 62.127 10.958 61.59 10.308C61.069 9.642 60.393 9.308 59.563 9.308C58.733 9.308 58.049 9.642 57.511 10.308C56.974 10.958 56.705 11.876 56.705 13.062C56.705 14.232 56.975 15.15 57.511 15.817C58.049 16.483 58.733 16.816 59.563 16.816ZM73.366 19.4C72.03 19.4 70.916 19.092 70.02 18.474C69.1648 17.8693 68.4895 17.044 68.066 16.086C67.6627 15.1289 67.4552 14.1006 67.456 13.062C67.456 12.022 67.659 11.022 68.066 10.064C68.4802 9.10005 69.1573 8.27215 70.02 7.675C70.916 7.042 72.03 6.725 73.366 6.725C74.652 6.725 75.726 7.034 76.59 7.651C77.4271 8.2208 78.087 9.01475 78.494 9.942C78.895 10.84 79.104 11.812 79.106 12.794V14.038H70.436C70.467 14.51 70.606 14.956 70.85 15.378C71.11 15.801 71.469 16.15 71.925 16.426C72.397 16.686 72.935 16.816 73.537 16.816C74.774 16.816 75.775 16.231 76.541 15.062L78.958 16.329C77.786 18.377 75.922 19.401 73.366 19.401V19.4ZM76.248 11.746C76.085 10.998 75.768 10.39 75.296 9.918C74.823 9.446 74.18 9.211 73.366 9.211C72.584 9.211 71.934 9.463 71.412 9.966C70.9132 10.4428 70.5797 11.0664 70.46 11.746H76.248ZM87.192 19.4C85.972 19.4 84.905 19.116 83.992 18.547C83.0904 17.9888 82.3565 17.1972 81.868 16.256C81.379 15.281 81.135 14.216 81.135 13.062C81.135 11.909 81.379 10.852 81.868 9.894C82.3512 8.94222 83.0862 8.14118 83.993 7.578C84.905 7.01 85.971 6.725 87.192 6.725C88.414 6.725 89.48 7.009 90.392 7.578C91.2953 8.13778 92.023 8.94034 92.492 9.894C92.997 10.852 93.25 11.909 93.25 13.062C93.2602 14.1724 93 15.2686 92.492 16.256C92.0175 17.1993 91.2906 17.9924 90.392 18.547C89.48 19.116 88.414 19.4 87.192 19.4ZM87.192 16.816C88.186 16.816 88.952 16.451 89.488 15.72C90.042 14.988 90.318 14.102 90.318 13.062C90.318 12.022 90.042 11.137 89.488 10.406C88.951 9.674 88.186 9.309 87.192 9.309C86.199 9.309 85.426 9.674 84.872 10.405C84.334 11.137 84.066 12.022 84.066 13.062C84.066 14.102 84.334 14.988 84.872 15.72C85.426 16.451 86.199 16.816 87.192 16.816ZM99.26 19.4C98.17 19.4 97.274 19.075 96.574 18.426C95.874 17.776 95.524 16.858 95.524 15.67C95.524 14.874 95.744 14.176 96.184 13.574C96.622 12.957 97.242 12.486 98.039 12.161C98.837 11.819 99.749 11.649 100.774 11.649H102.826V11.113C102.826 10.463 102.622 9.975 102.215 9.65C101.809 9.325 101.296 9.162 100.677 9.162C100.205 9.162 99.774 9.301 99.382 9.577C99.008 9.837 98.732 10.267 98.552 10.869L95.988 10.138C96.2588 9.14524 96.8625 8.27569 97.698 7.675C98.56 7.042 99.554 6.725 100.677 6.725C102.273 6.725 103.51 7.123 104.39 7.919C105.269 8.699 105.708 10.015 105.708 11.868V19.206H103.363L103.046 17.646C102.086 18.816 100.823 19.4 99.26 19.4V19.4ZM99.675 16.938C100.197 16.938 100.693 16.825 101.166 16.597C101.632 16.387 102.036 16.059 102.338 15.647C102.647 15.224 102.802 14.737 102.802 14.184V13.916H100.579C99.846 13.916 99.277 14.062 98.869 14.354C98.479 14.63 98.283 15.062 98.283 15.646C98.283 15.988 98.406 16.288 98.65 16.549C98.894 16.809 99.236 16.939 99.675 16.939V16.938ZM113.698 19.4C110.93 19.4 109.122 18.174 108.275 15.72L111.011 14.769C111.239 15.484 111.573 16.004 112.012 16.329C112.452 16.654 113.046 16.817 113.795 16.817C114.382 16.817 114.862 16.711 115.236 16.5C115.627 16.272 115.822 15.988 115.822 15.646C115.822 15.322 115.635 15.062 115.261 14.866C114.886 14.656 114.21 14.444 113.234 14.233C110.466 13.631 109.082 12.315 109.082 10.283C109.082 9.585 109.285 8.967 109.692 8.431C110.107 7.87212 110.663 7.43432 111.304 7.163C111.983 6.87176 112.714 6.72269 113.453 6.725C115.651 6.725 117.255 7.643 118.265 9.479L116.091 10.991C115.505 9.869 114.634 9.309 113.478 9.309C113.084 9.30139 112.695 9.40241 112.354 9.601C112.045 9.796 111.89 10.048 111.89 10.357C111.89 10.682 112.045 10.95 112.354 11.161C112.663 11.372 113.25 11.567 114.113 11.746C115.643 12.038 116.774 12.47 117.507 13.038C118.257 13.59 118.631 14.395 118.631 15.451C118.631 16.671 118.158 17.638 117.214 18.352C116.286 19.052 115.114 19.4 113.698 19.4V19.4ZM121.858 1.947H124.886V11.478L128.916 6.92H132.579L127.329 12.55L133.142 19.206H129.478L124.886 13.623V19.206H121.858V1.947V1.947ZM48.883 5.336C48.33 5.336 47.866 5.15 47.491 4.776C47.117 4.402 46.93 3.938 46.93 3.386C46.93 2.834 47.117 2.37 47.491 1.996C47.866 1.623 48.331 1.436 48.883 1.436C49.437 1.436 49.902 1.623 50.275 1.996C50.65 2.37 50.838 2.834 50.838 3.386C50.838 3.938 50.65 4.402 50.276 4.776C49.902 5.15 49.436 5.336 48.883 5.336V5.336ZM47.37 6.92H50.398V19.206H47.37V6.92ZM17.971 7.142C17.0233 7.1428 16.1141 6.76715 15.4433 6.09768C14.7725 5.4282 14.3951 4.51971 14.394 3.572C14.3943 3.10266 14.487 2.63796 14.6668 2.20444C14.8467 1.77092 15.1101 1.37708 15.4422 1.04539C15.7743 0.713695 16.1684 0.450657 16.6021 0.271289C17.0359 0.0919217 17.5007 -0.000262385 17.97 3.32652e-07C18.4394 -0.000525214 18.9044 0.0914318 19.3382 0.270619C19.7721 0.449807 20.1665 0.712714 20.4987 1.04433C20.831 1.37594 21.0947 1.76975 21.2747 2.20329C21.4547 2.63682 21.5476 3.10157 21.548 3.571C21.5476 4.04043 21.4547 4.50518 21.2747 4.93871C21.0947 5.37225 20.831 5.76606 20.4987 6.09768C20.1665 6.42929 19.7721 6.69219 19.3382 6.87138C18.9044 7.05057 18.4394 7.14253 17.97 7.142H17.971ZM7.178 7.142C6.70865 7.14253 6.2438 7.0506 5.80998 6.87148C5.37616 6.69235 4.98187 6.42953 4.64963 6.09803C4.31738 5.76652 4.05368 5.37282 3.87358 4.93941C3.69349 4.50599 3.60052 4.04134 3.6 3.572C3.60026 3.10249 3.69303 2.63763 3.87301 2.20398C4.05299 1.77033 4.31664 1.3764 4.64892 1.04468C4.98119 0.712962 5.37557 0.449965 5.80952 0.270715C6.24347 0.0914649 6.70848 -0.000525217 7.178 3.32652e-07C7.64734 -0.000393798 8.11217 0.0916602 8.54594 0.270906C8.97971 0.450153 9.37392 0.713081 9.70608 1.04468C10.0382 1.37628 10.3018 1.77005 10.4818 2.20352C10.6618 2.63698 10.7546 3.10166 10.755 3.571C10.7546 4.04034 10.6618 4.50502 10.4818 4.93848C10.3018 5.37195 10.0382 5.76572 9.70608 6.09732C9.37392 6.42892 8.97971 6.69185 8.54594 6.87109C8.11217 7.05034 7.64734 7.14239 7.178 7.142V7.142ZM1.367 11.589C0.520997 11.589 -0.149003 12.317 0.0289972 13.143C0.653065 15.9944 2.23351 18.5466 4.50798 20.3759C6.78244 22.2053 9.61414 23.2018 12.533 23.2C18.667 23.2 23.793 18.893 25.038 13.143C25.216 12.317 24.546 11.589 23.7 11.589H1.367V11.589Z" fill="#ffffff"/>
</g>
<defs fill="#ffffff">
<clipPath id="clip0" fill="#ffffff">
<rect fill="white" height="24" width="134"/>
</clipPath>
</defs>
</svg>